<svg xmlns="http://www.w3.org/2000/svg" xmlns:xlink="http://www.w3.org/1999/xlink" viewBox="0 0 460 386"><defs><style>.cls-1{isolation:isolate;}.cls-2{fill:url(#linear-gradient);}.cls-3{fill:url(#linear-gradient-2);}.cls-4{fill:url(#linear-gradient-3);}.cls-5{fill:#23293b;}.cls-6{fill:#ed9c39;}.cls-7{fill:url(#radial-gradient);}.cls-8{fill:#5484eb;}.cls-9{fill:#d55040;}.cls-10{fill:#5ba45c;}.cls-11{fill:#efbd42;}.cls-12{opacity:0.55;mix-blend-mode:multiply;}.cls-13{fill:url(#linear-gradient-4);}.cls-14,.cls-16{fill:#fff;}.cls-15{fill:url(#linear-gradient-5);}.cls-16{fill-rule:evenodd;}.cls-17{fill:url(#linear-gradient-6);}.cls-18{fill:url(#linear-gradient-7);}.cls-19{fill:#f1ba41;}.cls-20{fill:#4da2e8;}.cls-21{fill:#8cb638;}.cls-22{fill:#dd5c35;}</style><linearGradient id="linear-gradient" x1="112.64" y1="354.24" x2="347.37" y2="157.27" gradientUnits="userSpaceOnUse"><stop offset="0" stop-color="#f4f4f6"/><stop offset="1" stop-color="#eaebed"/></linearGradient><linearGradient id="linear-gradient-2" x1="303.64" y1="196.54" x2="356.36" y2="314.96" gradientTransform="translate(0 0)" gradientUnits="userSpaceOnUse"><stop offset="0.02" stop-color="#4c4c53" stop-opacity="0.2"/><stop offset="0.02" stop-color="#4c4c53" stop-opacity="0.2"/><stop offset="0.45" stop-color="#4c4c53" stop-opacity="0.05"/><stop offset="0.86" stop-color="#4c4c53" stop-opacity="0"/></linearGradient><linearGradient id="linear-gradient-3" x1="8986.85" y1="384.84" x2="9032.37" y2="126.66" gradientTransform="matrix(-1, 0, 0, 1, 9139.61, 0)" gradientUnits="userSpaceOnUse"><stop offset="0.5" stop-color="#4c4c53" stop-opacity="0"/><stop offset="0.79" stop-color="#4c4c53" stop-opacity="0.03"/><stop offset="0.99" stop-color="#4c4c53" stop-opacity="0.14"/><stop offset="1" stop-color="#4c4c53" stop-opacity="0.15"/></linearGradient><radialGradient id="radial-gradient" cx="29.46" cy="140.79" r="400.14" gradientUnits="userSpaceOnUse"><stop offset="0" stop-color="#34353b"/><stop offset="0.22" stop-color="#2d2e33" stop-opacity="0.92"/><stop offset="0.66" stop-color="#212227" stop-opacity="0.79"/><stop offset="1" stop-color="#1d1e23" stop-opacity="0.75"/></radialGradient><linearGradient id="linear-gradient-4" x1="237.18" y1="102.82" x2="345.55" y2="142.26" gradientUnits="userSpaceOnUse"><stop offset="0" stop-color="#00e4a0"/><stop offset="1" stop-color="#00a7c6" stop-opacity="0.8"/></linearGradient><linearGradient id="linear-gradient-5" x1="114.45" y1="102.82" x2="222.82" y2="142.26" gradientUnits="userSpaceOnUse"><stop offset="0" stop-color="#7017ff"/><stop offset="0.2" stop-color="#6a13ed"/><stop offset="0.6" stop-color="#5c0abe"/><stop offset="0.99" stop-color="#4c008a"/></linearGradient><linearGradient id="linear-gradient-6" x1="178.79" y1="109.91" x2="281.21" y2="64.31" gradientUnits="userSpaceOnUse"><stop offset="0" stop-color="#323339"/><stop offset="1" stop-opacity="0.8"/></linearGradient><linearGradient id="linear-gradient-7" x1="175.82" y1="138.25" x2="284.19" y2="177.69" gradientUnits="userSpaceOnUse"><stop offset="0" stop-color="#f51277"/><stop offset="1" stop-color="#8f2482"/></linearGradient></defs><g class="cls-1"><g id="Layer_1" data-name="Layer 1"><path class="cls-2" d="M85.85,223.51,30,255.75l127.92,73.86,55.86-32.24Zm272.08-9.37L230,140.28,102.08,214.14,230,288Zm16.22,9.37L318.3,255.75,374.15,288,430,255.75ZM174.15,339,230,371.22l127.93-73.85-55.85-32.25Z"/><polygon class="cls-3" points="230 255.75 230 371.22 430 255.75 430 140.28 230 255.75"/><polygon class="cls-4" points="230 255.75 30 140.28 30 255.75 230 371.22 230 255.75"/><path d="M48.31,106.7l-4.76-2.64-4.15,2.37,4.76,2.64L42,110.29,30.76,104l2.11-1.21,4.65,2.58L41.67,103,37,100.44l2.12-1.21,11.28,6.26Z"/><path d="M58.19,101.05l-1.68,1-.71-.23a3.66,3.66,0,0,1-1.72,1.8,4.57,4.57,0,0,1-4.59-.14c-1.68-.93-1.6-1.7.07-2.65l2-1.13-.87-.48c-.91-.51-1.49-.54-2.8.21a12.44,12.44,0,0,0-2,1.44L44,100.11a10.76,10.76,0,0,1,2.42-1.82c2.57-1.48,4.24-1.4,6.31-.25ZM53,100.5l-1.52.86c-.67.39-.67.6,0,.94a1.44,1.44,0,0,0,1.65,0,2.67,2.67,0,0,0,1.13-1.12Z"/><path d="M62.33,98.88a16.56,16.56,0,0,1-3.3,1.35l-1.29-1A15.1,15.1,0,0,0,60.53,98c.91-.52.84-.71.22-1.06s-.87-.37-2.52.22C55.74,98,55,97.88,53.4,97s-1.66-1.74.67-3.08a17.67,17.67,0,0,1,2.75-1.24l1.44,1a21.94,21.94,0,0,0-2.49,1.16c-.89.51-.84.71-.33,1,.66.37.76.37,2.16-.11,2.9-1,3.42-.92,5.11,0S64.8,97.47,62.33,98.88Z"/><path d="M71.23,93.6l-5.77-3.19a1.2,1.2,0,0,0-1.31,0A4.46,4.46,0,0,0,62.71,92l5.72,3.18-2.05,1.17L54.76,89.92l1.76-1.33L60.81,91A6.24,6.24,0,0,1,63,88.81a4.2,4.2,0,0,1,4.29.3l6,3.32Z"/><path d="M65.37,86.34,63,85,65,83.84l2.38,1.32Zm9.42,5.22L66.54,87l2-1.18,8.25,4.58Z"/><path d="M70.09,85c-2.07-1.14-2.07-2.49.72-4.09a19.16,19.16,0,0,1,3.42-1.53l1.61,1.15a26.54,26.54,0,0,0-3,1.41c-1.47.84-1.43,1.39-.23,2.06l4.34,2.4a3.24,3.24,0,0,0,3.65-.15A19.22,19.22,0,0,0,83,84.55l2.08.89a14.3,14.3,0,0,1-2.67,2c-2.79,1.59-5.19,1.61-7.26.46Z"/><path d="M89.68,83.24a6.56,6.56,0,0,1-6.82.24l-2.08-1.16c-1.7-.94-2.5-2.24.31-3.84a6.56,6.56,0,0,1,6.82-.24L90,79.4C91.69,80.34,92.49,81.64,89.68,83.24Zm-6.83-3.78c-1.09.62-1,1.13-.09,1.65L85,82.34a2.75,2.75,0,0,0,2.94-.07c1.09-.63,1-1.14.09-1.66l-2.22-1.23A2.73,2.73,0,0,0,82.85,79.46Z"/><path d="M92,74.38a9.17,9.17,0,0,0-1,1.9l5.32,3-2,1.17-8.26-4.58,1.74-1,1,.43a5.57,5.57,0,0,1,1.07-1.83Z"/><path d="M103.56,72c1.83,1,2.11,2.07.21,3.16a18.27,18.27,0,0,1-2.42,1.12l3.4,1.89L103,79.53,91.11,72.94,92.74,72l.9.27a3.3,3.3,0,0,1,1.73-2,5.26,5.26,0,0,1,5.38.14Zm-4,3.31a13.94,13.94,0,0,0,2-.92c.74-.42.67-.78-.08-1.19l-2.91-1.62a1.9,1.9,0,0,0-2.06,0,2,2,0,0,0-1.09,1.47Z"/><polygon points="11.77 110.35 8.63 117.05 8.64 117.06 19.09 122.86 23.55 122.16 13.09 116.35 15.04 112.17 11.77 110.35"/><polygon points="14.77 108.64 23.09 113.27 20.1 114.98 16.99 113.25 15.81 115.77 26.49 121.69 30.94 120.99 22.64 116.38 25.63 114.67 28.72 116.39 29.9 113.87 19.22 107.94 14.77 108.64"/><polygon points="33.94 119.28 37.08 112.58 37.08 112.58 26.62 106.78 22.17 107.48 32.63 113.28 30.67 117.47 33.94 119.28"/><path d="M108.76,68.59c1.54.85,2.62.79,4.41-.23a21.16,21.16,0,0,0,2.31-1.58h0l1.34.58s0,0,0,0a16,16,0,0,1-2.44,1.73c-2.67,1.52-4.89,1.49-7,.34l-4.85-2.69c-2.08-1.16-2.17-2.41.5-3.93a22.18,22.18,0,0,1,3-1.4,0,0,0,0,1,0,0l1,.74s0,0,0,0a25.21,25.21,0,0,0-2.77,1.32c-1.79,1-1.88,1.64-.35,2.49Z"/><path d="M118.6,66.5l-11.29-6.27s0,0,0,0l1.15-.88h0L120,65.71v0l-1.35.77Z"/><path d="M125,63a6.24,6.24,0,0,1-6.27.18l-2.32-1.29c-1.68-.93-2.1-2.2.22-3.53a6.22,6.22,0,0,1,6.26-.18l2.33,1.29C126.94,60.43,127.36,61.69,125,63Zm-7.16-4c-1.25.71-1.28,1.4-.11,2.05l2.43,1.34a3.47,3.47,0,0,0,3.63-.09c1.25-.71,1.27-1.39.1-2L121.51,59A3.49,3.49,0,0,0,117.88,59.05Z"/><path d="M123,55h0l6.12,3.4a1.42,1.42,0,0,0,1.51,0,6.09,6.09,0,0,0,1.86-2L126.47,53s0,0,0,0l1.34-.77s0,0,0,0l8,4.44v0l-1.09.62h0l-.79-.3h0a7.46,7.46,0,0,1-2.34,2.3,3.62,3.62,0,0,1-3.78-.15l-6.14-3.4s0,0,0,0Z"/><path d="M131.89,52.64c-1.6-.89-1.9-1.87,0-2.94a19.88,19.88,0,0,1,2.52-1.16h0L131,46.68s0,0,0,0l1.16-.87h0l11.48,6.38s0,0,0,0l-1.14.65h0l-.8-.32h0a3.31,3.31,0,0,1-1.74,2,4.59,4.59,0,0,1-4.79,0Zm3.71-3.42a21,21,0,0,0-2.44,1.11c-.92.53-.87,1,.11,1.52l3.28,1.82a2.18,2.18,0,0,0,2.46,0,2.56,2.56,0,0,0,1.31-1.83Z"/><path d="M137.4,43.4l3.94-2.26c2.34-1.34,4.19-1.24,5.87-.31l1.63.91c1.7.94,1.9,2-.44,3.32l-2.54,1.45,3.92,2.17h0l-1.39.79s0,0,0,0Zm5.16-1.53-2.49,1.43,4.52,2.5,2.49-1.42c1.35-.77,1.43-1.24.35-1.83l-1.61-.9C144.73,41,143.91,41.11,142.56,41.87Z"/><path d="M156.84,44.64l-11.29-6.26a0,0,0,0,1,0,0l1.16-.88a0,0,0,0,1,0,0l11.48,6.37s0,0,0,0l-1.35.77Z"/><path d="M165.71,39.56l-1.14.65h0l-.63-.27s0,0,0,0a3.8,3.8,0,0,1-1.83,1.88,4.3,4.3,0,0,1-4.42-.07c-1.66-.93-1.42-1.73.18-2.65l2.12-1.21s0,0,0,0l-1.24-.68c-1-.56-1.8-.5-3.09.24a13.87,13.87,0,0,0-2.12,1.5s0,0,0,0l-1.23-.51s0,0,0,0a12.41,12.41,0,0,1,2.26-1.68c2.28-1.3,3.92-1.24,5.64-.28l5.58,3.09Zm-4.6-1h0l-2,1.15c-.85.49-.89.81-.09,1.26a1.9,1.9,0,0,0,2.29,0,3.17,3.17,0,0,0,1.4-1.55Z"/><path d="M171.62,36.05s0,0,0,0a5,5,0,0,1-1.37,1.12,3.51,3.51,0,0,1-3.81.11l-5.2-2.88h0l-1.38.79h0l-1.13-.63s0,0,0,0l1.38-.79s0,0,0,0l-1.95-1.08s0,0,0,0l1.15-.88h0l2.16,1.2,2.18-1.24a0,0,0,0,1,0,0l1,.69s0,0,0,0l-2.06,1.18,5,2.77a1.43,1.43,0,0,0,1.71,0,5.44,5.44,0,0,0,1.07-.83h0Z"/><path d="M167.07,27.14s0,0,0,0a10.72,10.72,0,0,0-1.46.67c-.85.48-.77.77,0,1.22l1.34.74a0,0,0,0,0,0,0l2.24-1.28s0,0,0,0l1,.69s0,0,0,0l-2.15,1.23L175,34.25s0,0,0,0l-1.35.78h0l-6.85-3.81h0l-1.38.79h0l-1-.69h0l1.26-.73s0,0,0,0l-1.47-.82c-1.42-.79-1.34-1.63.13-2.47a8.93,8.93,0,0,1,1.84-.79,0,0,0,0,1,0,0Z"/><path d="M181.11,31a6.22,6.22,0,0,1-6.26.18l-2.32-1.29c-1.69-.94-2.1-2.2.22-3.53a6.22,6.22,0,0,1,6.26-.18l2.33,1.29C183,28.37,183.44,29.64,181.11,31ZM174,27c-1.25.71-1.28,1.39-.11,2l2.43,1.35a3.49,3.49,0,0,0,3.63-.09c1.24-.71,1.27-1.4.1-2.05l-2.42-1.34A3.47,3.47,0,0,0,174,27Z"/><path d="M182.55,22.16a9.72,9.72,0,0,0-.89,2.07l5.53,3.06s0,0,0,0l-1.35.77h0l-8-4.44s0,0,0,0L179,23h0l1.16.56s0,0,0,0a5.72,5.72,0,0,1,.89-1.93h0l1.42.59A0,0,0,0,1,182.55,22.16Z"/><path d="M199.94,20h0l-6.13-3.4a1.42,1.42,0,0,0-1.51,0,5.88,5.88,0,0,0-1.86,2L196.48,22s0,0,0,0l-1.35.77a0,0,0,0,1,0,0L189,19.37a1.42,1.42,0,0,0-1.51,0,6,6,0,0,0-1.86,2l6,3.36s0,0,0,0l-1.35.77s0,0,0,0l-8-4.44s0,0,0,0l1.09-.63h0l.78.3h0a7.47,7.47,0,0,1,2.35-2.29,3.22,3.22,0,0,1,2.38-.4h0a7.43,7.43,0,0,1,2.43-2.36,3.62,3.62,0,0,1,3.78.15l6.14,3.4s0,0,0,0Z"/><path class="cls-5" d="M260.12,318.28a4.88,4.88,0,0,0,1.1.5c.34.09.71.18,1.15.26a1.06,1.06,0,0,1,.34.1.26.26,0,0,1,.12.31l-.24.67a.42.42,0,0,1-.18.23,1.2,1.2,0,0,1-.49.1,8.82,8.82,0,0,1-.92-.07c-.3-.05-.62-.1-1-.18.15,1.08-.42,2-1.73,2.76a6,6,0,0,1-3,.81,5.71,5.71,0,0,1-2.95-.75c-.94-.54-1.37-1.17-1.27-1.89s.71-1.41,1.85-2.07c.38-.21.8-.42,1.26-.62s1-.4,1.51-.6l-.8-.46a4.62,4.62,0,0,0-2.29-.72,4.7,4.7,0,0,0-2.31.74,5.51,5.51,0,0,0-1.05.78,6.82,6.82,0,0,0-.82.9,3.17,3.17,0,0,1-.24.31.71.71,0,0,1-.15.12.55.55,0,0,1-.57-.06l-.54-.32c-.18-.1-.29-.19-.31-.26a.42.42,0,0,1,.07-.32,4.82,4.82,0,0,1,.9-1.09,8.23,8.23,0,0,1,1.51-1.12,7.73,7.73,0,0,1,3.8-1.15,7.11,7.11,0,0,1,3.63,1l3.59,2.07Zm-2.81,3.57a3.72,3.72,0,0,0,.94-.78,1.3,1.3,0,0,0,.34-1,1.05,1.05,0,0,0-.33-.63,4.46,4.46,0,0,0-.85-.62l-.47-.26c-.39.14-.8.3-1.2.47s-.76.37-1.11.57c-.74.42-1.13.82-1.2,1.2s.18.73.73,1a3.07,3.07,0,0,0,3.15,0Zm10.07-4.44a1.24,1.24,0,0,1-.53.18,1.92,1.92,0,0,1-.66-.12L255,314a3.23,3.23,0,0,1-.54-.2c-.18-.1-.19-.21,0-.31l1.08-.63a1.14,1.14,0,0,1,.55-.18,2.2,2.2,0,0,1,.65.12l9.17,3.15-5.59-5.22c-.17-.16-.24-.28-.22-.37s.13-.2.33-.32l.89-.51a1.25,1.25,0,0,1,.55-.19,1.64,1.64,0,0,1,.64.13l9.15,3.27-5.49-5.39c-.16-.16-.22-.29-.21-.37s.12-.2.32-.31l1-.6a.52.52,0,0,1,.55,0,.83.83,0,0,1,.16.12.93.93,0,0,1,.19.2l5.89,6.47c.15.17.22.3.2.39a.68.68,0,0,1-.31.3l-1,.55a1.13,1.13,0,0,1-.55.19,1.65,1.65,0,0,1-.65-.13L263,311.07l5.42,5.1c.17.15.25.28.23.37s-.13.21-.33.32Zm14.51-8a11.81,11.81,0,0,1-1.9.87,10.32,10.32,0,0,1-1.72.48,2.1,2.1,0,0,1-.65,0,2.35,2.35,0,0,1-.38-.14l-.56-.33c-.23-.13-.25-.25-.09-.34a.94.94,0,0,1,.23-.1l.39-.1a11.31,11.31,0,0,0,1.6-.48,9.25,9.25,0,0,0,1.45-.68,2.66,2.66,0,0,0,1.25-1.14c.13-.36,0-.68-.47-.94a2.11,2.11,0,0,0-1.08-.27,6,6,0,0,0-1.69.31l-2.1.64a7.89,7.89,0,0,1-2.9.37,5.14,5.14,0,0,1-2.15-.61,2.15,2.15,0,0,1-.93-.88,1.4,1.4,0,0,1-.11-1,2.19,2.19,0,0,1,.57-1,5.17,5.17,0,0,1,1.21-.91,8.14,8.14,0,0,1,.78-.4l.84-.35.81-.26A4,4,0,0,1,275,302a2.14,2.14,0,0,1,.6,0,1.08,1.08,0,0,1,.47.15l.52.3c.23.13.26.25.1.35a2.37,2.37,0,0,1-.56.17,8.74,8.74,0,0,0-2.55,1,2.68,2.68,0,0,0-1.16,1c-.13.32,0,.61.46.87a2.11,2.11,0,0,0,1.12.26,7.4,7.4,0,0,0,1.82-.35l2.07-.62a7.9,7.9,0,0,1,2.78-.38,4.93,4.93,0,0,1,2.05.6,2.64,2.64,0,0,1,1,.91,1.44,1.44,0,0,1,.16,1,2.14,2.14,0,0,1-.6,1.06A5.8,5.8,0,0,1,281.89,309.38Z"/><path class="cls-6" d="M289.35,311.28c-1,3.65-4.81,7.52-9.35,10.14-6.37,3.68-14.46,5.64-22.71,5.88-.65,0-.77-.4-.11-.5a61.17,61.17,0,0,0,20.82-7,31.68,31.68,0,0,0,10-8.72C288.31,310.59,289.51,310.68,289.35,311.28Zm-.21-1.87c-1.06-.08-3.36,1.6-4.4,2.37-.31.23-.67.08-.59-.24.62-2,4.46-3.77,5.34-3.72s3.81,2.33,3.5,4.39a.37.37,0,0,1-.67.14C291.67,311.47,290.19,309.48,289.14,309.41Z"/><polygon class="cls-7" points="230 24.81 30 140.28 230 255.75 430 140.28 230 24.81"/><path class="cls-8" d="M385.42,260.88l6.09-3.51c3.52-2,4.35-5.09,2.06-7.62s-7.19-3.87-12-3.33h0a25.12,25.12,0,0,0-8.63-1.17v3.95a12.76,12.76,0,0,1,7,1.49l.61.35c4.05-2.34,10.14,1.17,6.08,3.51l-6.08,3.52Z"/><path class="cls-9" d="M373,249.18l-.05-3.93c-5.34.19-10.13,2-12.66,4.68s-2.46,6,.22,8.7h0a6.37,6.37,0,0,1,3.06-3.4,12.05,12.05,0,0,1,1.74-.78h0c-.27-2.65,3.09-5,7.66-5.25Z"/><path class="cls-10" d="M379.34,264.39l6.08-3.51-4.86-2.81-6.09,3.51a5.34,5.34,0,0,1-1.52.57v4.06l0,0a15.17,15.17,0,0,0,6.36-1.84Z"/><path class="cls-11" d="M363.55,255.27c-3.36,2-4.19,4.94-2.07,7.41s6.73,3.89,11.47,3.54v-4.08c-2.81.62-5.82-.58-5.82-2.32s3-2.94,5.82-2.32v-4.08a16.83,16.83,0,0,0-9.4,1.85Z"/><polygon class="cls-12" points="291.36 104.86 230 140.28 291.36 175.71 352.73 140.28 291.36 104.86"/><polygon class="cls-12" points="168.64 104.86 107.27 140.28 168.64 175.71 230 140.28 168.64 104.86"/><polygon class="cls-12" points="230 140.28 168.64 175.71 230 211.14 291.36 175.71 230 140.28"/><polygon class="cls-12" points="230 69.43 168.64 104.86 230 140.28 291.36 104.86 230 69.43"/><polygon class="cls-13" points="291.36 87.11 230 122.54 291.36 157.97 352.73 122.54 291.36 87.11"/><path class="cls-14" d="M276.16,113.86l-5.65,12,.15,0,15,8.7,20.82-3.28h0l.07,0,5.62-12-15.12-8.74h0Zm22.52,6.24-1.3,3.07-3.95.54h0l-2.78.44,5,2.91-1.45,3.75L284.15,125l1-2.89,7-1.15-5-2.91,1.49-3.76,5.27,3Z"/><polygon class="cls-15" points="168.64 87.11 107.27 122.54 168.64 157.97 230 122.54 168.64 87.11"/><path class="cls-16" d="M169,117.26l-11.55,1.79,8.38,4.84,11.52-1.78Zm12.52-2.37L173,110,170,116.64l8.49,4.9Zm-37.24,6.17,8.39,4.84,11.52-1.78-8.35-4.84Zm34.34,1.75-11.55,1.79,8.38,4.84L187,127.66Z"/><polygon class="cls-17" points="230 51.68 168.64 87.11 230 122.54 291.36 87.11 230 51.68"/><path class="cls-14" d="M206.57,88.09l37.69,7.29L231.73,73.57Zm19.08-5.18,1.46-.84,1.45.84-1.45.84Zm2.93,5-1.46.85L225.66,88l1.46-.84Zm-2.19-1.26-1.46.84-1.46-.84,1.46-.84Zm-2.19-1.26-1.46.84-1.46-.84,1.46-.84ZM233,88l-1.46.85L230,88l1.46-.84Zm-2.19-1.26-1.45.84-1.46-.84,1.46-.84Zm-2.18-1.26-1.46.84-1.46-.84,1.46-.84Zm-2.19-1.26-1.46.84-1.46-.84,1.46-.85Zm1.44,0,1.46-.84,1.46.84-1.46.84Zm3.66,2.1L230,85.43l1.46-.84,1.46.84Z"/><polygon class="cls-18" points="230 122.54 168.64 157.97 230 193.4 291.36 157.97 230 122.54"/><path class="cls-14" d="M226.89,159.74a6.27,6.27,0,0,0,5.69,0c1.57-.91,1.58-2.38,0-3.29a6.27,6.27,0,0,0-5.69,0C225.31,157.37,225.32,158.83,226.89,159.74Z"/><path class="cls-14" d="M234,154.14a.8.8,0,0,0,0,1.52,2.9,2.9,0,0,0,2.63,0,.8.8,0,0,0,0-1.52A2.9,2.9,0,0,0,234,154.14Z"/><path class="cls-14" d="M240.08,153.23c-.87.3-1.16,1-.64,1.46a2.73,2.73,0,0,0,2.54.38c.88-.31,1.17-1,.64-1.47l-.07-.08A2.81,2.81,0,0,0,240.08,153.23Z"/><path class="cls-14" d="M235.76,152.53a2.75,2.75,0,0,0,2.56-.35.7.7,0,0,0-.08-1.18,1.88,1.88,0,0,0-.53-.29,2.74,2.74,0,0,0-2.56.35C234.61,151.56,234.89,152.22,235.76,152.53Z"/><path class="cls-14" d="M245.76,152.85c.85-.34,1.05-1,.46-1.49a.25.25,0,0,1-.09-.09,2.93,2.93,0,0,0-2.5-.18c-.84.34-1,1-.45,1.5A2.82,2.82,0,0,0,245.76,152.85Z"/><path class="cls-14" d="M239.27,150.32a2.84,2.84,0,0,0,2.59-.25.74.74,0,0,0-.08-1.3,1.66,1.66,0,0,0-.35-.19,2.79,2.79,0,0,0-2.58.25C238.25,149.31,238.44,150,239.27,150.32Z"/><path class="cls-14" d="M248.78,155.13a1,1,0,0,0-.38-.41,2.74,2.74,0,0,0-1.91-.34c-1,.15-1.56.74-1.3,1.32a2.27,2.27,0,0,0,2.29.75C248.48,156.29,249.05,155.7,248.78,155.13Z"/><path class="cls-14" d="M234,149.18a2.27,2.27,0,0,0,2.29-.74.77.77,0,0,0-.37-1,2.09,2.09,0,0,0-.92-.35,2.28,2.28,0,0,0-2.3.75C232.4,148.43,233,149,234,149.18Z"/><path class="cls-14" d="M240.36,164.17a23.22,23.22,0,0,1-21.08,0c-2.82-1.63-4.38-3.79-4.38-6.08s1.57-4.46,4.38-6.09a20.36,20.36,0,0,1,8.56-2.44l-.49-2.15a25.43,25.43,0,0,0-10.72,3.06c-3.52,2-5.46,4.74-5.47,7.62s1.94,5.57,5.47,7.61a29.11,29.11,0,0,0,26.38,0c2.92-1.69,4.75-3.83,5.3-6.19l-3.72-.28C244.16,161.11,242.69,162.82,240.36,164.17Z"/><polygon class="cls-19" points="133.81 270.58 123.44 276.56 133.81 282.55 144.17 276.56 133.81 270.58"/><polygon class="cls-20" points="111.52 283.44 121.89 289.43 132.26 283.44 121.89 277.46 111.52 283.44"/><polygon class="cls-21" points="132.25 269.68 121.89 263.69 111.52 269.68 121.89 275.66 132.25 269.68"/><polygon class="cls-22" points="109.97 270.57 99.6 276.56 109.97 282.54 120.33 276.56 109.97 270.57"/></g></g></svg>